<svg xmlns="http://www.w3.org/2000/svg"  viewBox="0 0 30 30" width="60px" height="60px" baseProfile="basic"><polygon fill="#b8f9ff" points="27,7 21,3 9,3 3,7 1,14 3,20 2,27 9,24 21,24 27,21 29,14"/><polygon fill="#65e4f0" points="3,20 2,27 9,24"/><polygon fill="#8af6ff" points="1,14 3,7 9,17"/><polygon fill="#8af6ff" points="18,5.5 9,3 3,7"/><polygon fill="#65e4f0" points="9,17 3,20 1,14"/><polygon fill="#b8f9ff" points="9,3 21,3 18,5.5"/><polygon fill="#43c0cc" points="9,24 21,24 23,17"/><polygon fill="#65e4f0" points="9,17 23,17 9,24"/><polygon fill="#51d2e0" points="23,17 21,24 27,21"/><polygon fill="#51d2e0" points="29,14 27,7 23,17"/><polygon fill="#8af6ff" points="21,3 27,7 18,5.5"/><polygon fill="#51d2e0" points="3,20 9,17 9,24"/><polygon fill="#65e4f0" points="18,5.5 27,7 23,17"/><polygon fill="#43c0cc" points="29,14 27,21 23,17"/><polygon fill="#b8f9ff" points="3,7 9,17 18,5.5"/><polygon fill="#8af6ff" points="18,5.5 23,17 9,17"/></svg>