<svg xmlns="http://www.w3.org/2000/svg"  viewBox="0 0 30 30" width="60px" height="60px" baseProfile="basic"><path fill="#ffb6b6" d="M24,5.5L15,2L6,5.5L2,15l4,9.5l9,3.5l9-3.5l4-9.5L24,5.5z M19,23.5h-8l-5-5V11l5-5h8l5,5v7.5L19,23.5	z"/><polygon fill="#ffb6b6" points="18,10 15,13 12,10 10,12 13,15 10,18 12,20 15,17 18,20 20,18 17,15 20,12"/><polygon fill="#ff9f9f" points="2,15 6,18.5 6,24.5"/><polygon fill="#ffb6b6" points="2,15 6,11 6,18.5"/><polygon fill="#ff8f8f" points="6,24.5 11,23.5 15,28"/><polygon fill="#ff8f8f" points="24,18.5 28,15 24,24.5"/><polygon fill="#ffb6b6" points="24,11 24,5.5 28,15"/><polygon fill="#ffd2d2" points="2,15 6,5.5 6,11"/><polygon fill="#ff8f8f" points="15,28 19,23.5 24,24.5"/><polygon fill="#ffb6b6" points="19,6 15,2 24,5.5"/><polygon fill="#ffd2d2" points="6,5.5 15,2 11,6"/><polygon fill="#ff9f9f" points="11,23.5 19,23.5 15,28"/><polygon fill="#ff9f9f" points="19,6 24,5.5 24,11"/><polygon fill="#ff9f9f" points="15,2 19,6 11,6"/><polygon fill="#ff9f9f" points="24,18.5 19,23.5 24,24.5"/><polygon fill="#ff9f9f" points="24,11 24,18.5 28,15"/><polygon fill="#ffb6b6" points="11,6 6,11 6,5.5"/><polygon fill="#ffb6b6" points="6,18.5 6,24.5 11,23.5"/><polygon fill="#ffb6b6" points="13,15 12,20 17,15"/><polygon fill="#ffd2d2" points="13,15 18,10 17,15"/><polygon fill="#ffb6b6" points="18,10 20,12 17,15"/><polygon fill="#ffd2d2" points="13,15 12,20 10,18"/><polygon fill="#ff9f9f" points="15,17 17,15 18,20"/><polygon fill="#ffb6b6" points="17,15 20,18 18,20"/><polygon fill="#ff9f9f" points="12,10 13,15 10,12"/><polygon fill="#ffb6b6" points="13,15 15,13 12,10"/></svg>